# xmcd
#
# Track frame offsets: 
#        150
#        18832
#        38512
#        54761
#        72851
#        90548
#        105264
#        121025
#        139747
#        155283
#        173692
#
# Disc length: 2575 seconds
#
# Revision: 2
# Processed by: cddbd v1.5.2PL0 Copyright (c) Steve Scherf et al.
# Submitted via: ExactAudioCopyFreeDBPlugin 1.0
#
DISCID=710a0d0b
DTITLE=Otis Taylor - Fantasizing About Being Black
DYEAR=2017
DGENRE=Blues
TTITLE0=Twelve String Mile
TTITLE1=Walk on Water
TTITLE2=Banjo Bam Bam
TTITLE3=Hand on Your Stomach
TTITLE4=Jump Jelly Belly
TTITLE5=Tripping on This
TTITLE6=D to E Blues
TTITLE7=Jump Out of Line
TTITLE8=Just Want to Live with You Baby
TTITLE9=Roll Down the Hill
TTITLE10=Jump to Mexico
EXTD=
EXTT0=
EXTT1=
EXTT2=
EXTT3=
EXTT4=
EXTT5=
EXTT6=
EXTT7=
EXTT8=
EXTT9=
EXTT10=
PLAYORDER=
